<?xml version="1.0" encoding="iso-8859-1"?>
<!-- Generator: Adobe Illustrator 19.0.0, SVG Export Plug-In . SVG Version: 6.00 Build 0)  -->
<svg version="1.1" id="Layer_1" xmlns="http://www.w3.org/2000/svg" xmlns:xlink="http://www.w3.org/1999/xlink" x="0px" y="0px"
	 viewBox="0 0 512 512" style="enable-background:new 0 0 512 512;" xml:space="preserve">
<g transform="translate(1 1)">
	<g>
		<g>
			<path d="M340.333,370.2c-5.12,0-8.533,3.413-8.533,8.533s3.413,8.533,8.533,8.533c5.12,0,8.533-3.413,8.533-8.533
				S345.453,370.2,340.333,370.2z"/>
			<path d="M340.333,225.133c-5.12,0-8.533,3.413-8.533,8.533s3.413,8.533,8.533,8.533c5.12,0,8.533-3.413,8.533-8.533
				S345.453,225.133,340.333,225.133z"/>
			<path d="M374.467,370.2c-5.12,0-8.533,3.413-8.533,8.533s3.413,8.533,8.533,8.533s8.533-3.413,8.533-8.533
				S379.587,370.2,374.467,370.2z"/>
			<path d="M485.4,395.8c14.507,0,25.6-11.093,25.6-25.6V267.8c0-14.507-11.093-25.6-25.6-25.6s-25.6,11.093-25.6,25.6v42.667
				h-8.533v-41.813c0-3.413,0-6.827,0-9.387c-2.56-44.373-25.6-84.48-62.293-110.933c-22.62-15.736-48.075-25.222-74.24-27.836V88.6
				h8.533h17.067c5.12,0,8.533-3.413,8.533-8.533s-3.413-8.533-8.533-8.533H331.8V37.4h8.533c5.12,0,8.533-3.413,8.533-8.533
				s-3.413-8.533-8.533-8.533h-17.067h-34.133h-17.067c-5.12,0-8.533,3.413-8.533,8.533s3.413,8.533,8.533,8.533h8.533v34.133
				h-8.533c-5.12,0-8.533,3.413-8.533,8.533s3.413,8.533,8.533,8.533h17.067h8.533v31.174c-13.685,0.206-27.437,2.29-40.96,6.373
				l-89.6,26.453c-10.24,2.56-20.48,4.267-31.573,4.267h-5.973c-17.067,0-33.28-4.267-46.933-12.8
				C74.947,139.8,68.973,132.973,63,122.733c-6.827-10.24-17.92-17.067-29.867-17.067C14.36,105.667-1,121.027-1,139.8v196.267
				c0,15.83,10.921,29.232,25.6,33.046V395.8c0,5.12,3.413,8.533,8.533,8.533c5.12,0,8.533-3.413,8.533-8.533v-26.688
				c14.679-3.814,25.6-17.216,25.6-33.046V319c0-23.893,18.773-42.667,42.667-42.667H229.4c8.533,0,17.92,2.56,25.6,6.827
				c18.773,11.093,28.16,34.133,22.187,56.32l-20.48,81.92H33.133C14.36,421.4-1,436.76-1,455.533
				c0,18.773,15.36,34.133,34.133,34.133h443.733c18.773,0,34.133-15.36,34.133-34.133c0-18.773-15.36-34.133-34.133-34.133h-25.6
				v-93.867h8.533V370.2C459.8,384.707,470.893,395.8,485.4,395.8z M297.667,37.4h17.067v34.133h-17.067V37.4z M476.867,438.467
				c9.387,0,17.067,7.68,17.067,17.067s-7.68,17.067-17.067,17.067H33.133c-9.387,0-17.067-7.68-17.067-17.067
				s7.68-17.067,17.067-17.067H252.44h198.827H476.867z M274.627,421.4l19.627-77.653c7.68-29.867-5.12-60.587-29.867-75.093
				c-10.24-5.973-22.187-9.387-34.133-9.387H110.787c-33.28,0-59.733,26.453-59.733,59.733v17.067
				c0,9.387-7.68,17.067-17.067,17.067c-9.387,0-17.067-7.68-17.067-17.067V139.8c0-9.387,7.68-17.067,17.067-17.067
				c5.973,0,11.093,3.413,14.507,8.533c7.68,12.8,15.36,21.333,25.6,27.307c17.067,10.24,35.84,15.36,55.467,15.36h5.973
				c12.8,0,24.747-1.707,36.693-5.12l89.6-26.453c40.107-11.947,82.773-4.267,116.907,19.627
				c33.28,23.04,52.907,58.88,55.467,98.133c0,2.56,0,5.12,0,7.68v153.6H274.627z M493.933,327.533V344.6h-17.067v-17.067H493.933z
				 M476.867,310.467V293.4h17.067v17.067H476.867z M485.4,378.733c-5.12,0-8.533-3.413-8.533-8.533v-8.533h17.067v8.533
				C493.933,375.32,490.52,378.733,485.4,378.733z M485.4,259.267c5.12,0,8.533,3.413,8.533,8.533v8.533h-17.067V267.8
				C476.867,262.68,480.28,259.267,485.4,259.267z"/>
			<path d="M340.333,191c-23.893,0-42.667,18.773-42.667,42.667c0,23.893,18.773,42.667,42.667,42.667
				c23.893,0,42.667-18.773,42.667-42.667C383,209.773,364.227,191,340.333,191z M340.333,259.267c-14.507,0-25.6-11.093-25.6-25.6
				c0-14.507,11.093-25.6,25.6-25.6c14.507,0,25.6,11.093,25.6,25.6C365.933,248.173,354.84,259.267,340.333,259.267z"/>
			<path d="M118.467,208.067h51.2c5.12,0,8.533-3.413,8.533-8.533S174.787,191,169.667,191h-51.2c-5.12,0-8.533,3.413-8.533,8.533
				S113.347,208.067,118.467,208.067z"/>
			<path d="M203.8,225.133h-85.333c-5.12,0-8.533,3.413-8.533,8.533s3.413,8.533,8.533,8.533H203.8c5.12,0,8.533-3.413,8.533-8.533
				S208.92,225.133,203.8,225.133z"/>
		</g>
	</g>
</g>
<g>
</g>
<g>
</g>
<g>
</g>
<g>
</g>
<g>
</g>
<g>
</g>
<g>
</g>
<g>
</g>
<g>
</g>
<g>
</g>
<g>
</g>
<g>
</g>
<g>
</g>
<g>
</g>
<g>
</g>
</svg>
